<?xml version="1.0" encoding="UTF-8" standalone="no"?>
<svg width="866px" height="504px" viewBox="0 0 866 504" version="1.1" xmlns="http://www.w3.org/2000/svg" xmlns:xlink="http://www.w3.org/1999/xlink">
    <!-- Generator: Sketch 41 (35326) - http://www.bohemiancoding.com/sketch -->
    <title>certificado</title>
    <desc>Created with Sketch.</desc>
    <defs>
        <linearGradient x1="0%" y1="50%" x2="100%" y2="50%" id="linearGradient-1">
            <stop stop-color="#66B821" offset="0%"></stop>
            <stop stop-color="#0470B0" offset="15.8302774%"></stop>
            <stop stop-color="#B02488" offset="34.6081792%"></stop>
            <stop stop-color="#E02128" offset="54.6755421%"></stop>
            <stop stop-color="#F22D92" offset="74.2765466%"></stop>
            <stop stop-color="#FF4100" offset="100%"></stop>
        </linearGradient>
        <rect id="path-2" x="0" y="0" width="866" height="504"></rect>
        <filter x="-50%" y="-50%" width="200%" height="200%" filterUnits="objectBoundingBox" id="filter-3">
            <feOffset dx="0" dy="2" in="SourceAlpha" result="shadowOffsetOuter1"></feOffset>
            <feGaussianBlur stdDeviation="2" in="shadowOffsetOuter1" result="shadowBlurOuter1"></feGaussianBlur>
            <feComposite in="shadowBlurOuter1" in2="SourceAlpha" operator="out" result="shadowBlurOuter1"></feComposite>
            <feColorMatrix values="0 0 0 0 0   0 0 0 0 0   0 0 0 0 0  0 0 0 0.5 0" type="matrix" in="shadowBlurOuter1"></feColorMatrix>
        </filter>
        <mask id="mask-4" maskContentUnits="userSpaceOnUse" maskUnits="objectBoundingBox" x="0" y="0" width="866" height="504" fill="white">
            <use xlink:href="#path-2"></use>
        </mask>
        <mask id="mask-5" maskContentUnits="userSpaceOnUse" maskUnits="objectBoundingBox" x="0" y="0" width="866" height="504" fill="white">
            <use xlink:href="#path-2"></use>
        </mask>
        <mask id="mask-6" maskContentUnits="userSpaceOnUse" maskUnits="objectBoundingBox" x="0" y="0" width="866" height="504" fill="white">
            <use xlink:href="#path-2"></use>
        </mask>
        <mask id="mask-7" maskContentUnits="userSpaceOnUse" maskUnits="objectBoundingBox" x="0" y="0" width="866" height="504" fill="white">
            <use xlink:href="#path-2"></use>
        </mask>
        <rect id="path-8" x="0" y="0" width="866" height="504"></rect>
    </defs>
    <g id="Page-1" stroke="none" stroke-width="1" fill="none" fill-rule="evenodd">
        <g id="certificado">
            <g id="Rectangle-3-Copy-7">
                <use fill="black" fill-opacity="1" filter="url(#filter-3)" xlink:href="#path-2"></use>
                <use stroke="#FBF6EF" mask="url(#mask-4)" stroke-width="10" fill="#FCF6EF" fill-rule="evenodd" xlink:href="#path-2"></use>
                <use stroke="url(#linearGradient-1)" mask="url(#mask-5)" stroke-width="40" xlink:href="#path-2"></use>
                <use stroke="#FBF6EF" mask="url(#mask-6)" stroke-width="36" xlink:href="#path-2"></use>
                <use stroke="url(#linearGradient-1)" mask="url(#mask-7)" stroke-width="18" xlink:href="#path-2"></use>
            </g>
            <g id="Group-48" opacity="0.15">
                <mask id="mask-9" fill="white">
                    <use xlink:href="#path-8"></use>
                </mask>
                <g id="Mask"></g>
                <g mask="url(#mask-9)">
                    <g transform="translate(-18.000000, -35.000000)">
                        <g id="porco" transform="translate(481.000000, 142.000000)">
                            <g id="Layer_1" stroke="#F22B92">
                                <path d="M129.09078,36.2921962 C87.7321635,45.041624 59.365413,66.6337057 52.3752243,100.232046 L48.8421782,117.209163 C43.4980377,142.866681 45.8837044,154.620139 35.8017694,184.85497 C30.8186122,199.803403 23.9281572,203.365926 0.242714885,205.532665 L4.81546331,253.109471 L57.6822956,260.875485 L43.1908931,269.318324 C56.8111698,276.091063 72.0430734,281.286932 88.8848386,284.899657 L91.1654759,321.472444 L100.852006,320.884368 L100.709025,288.481005 L114.122774,291.419594 L117.022113,321.756621 L126.722765,321.914398 L126.425329,294.628913 C172.436128,302.612766 220.978222,310.243414 271.946583,305.441986 L273.302256,328.561632 L284.000245,328.844016 L283.791069,305.641896 C284.754868,305.009894 292.929505,302.933698 294.557019,302.961488 L297.348681,328.688929 L307.026386,328.32945 L308.414715,298.47651 L356.309864,291.100455 L353.075136,277.286937 C353.68413,276.626248 377.554918,285.620409 417.604639,281.723507 L420.376885,239.921681 C400.677262,231.895695 391.143421,238.265027 388.259086,213.722703 L386.103778,189.20548 C384.007604,165.394665 377.786159,131.217213 368.934568,110.119079 L361.742264,92.9716349 C344.066442,58.5413815 323.12765,54.1245341 299.059159,44.1066185 C312.231075,39.5275123 314.233694,27.2872779 313.109262,12.9107847 C300.321277,17.7149019 291.986889,25.8161907 293.462595,41.1474114 C277.037417,36.4705913 255.509048,29.9300354 234.511122,29.5848992 L211.670327,29.2083869 C181.293897,28.707267 152.303149,32.2133134 135.110992,35.2935422 C142.313004,25.428921 142.254753,13.6996676 137.233644,0.688479564 C126.369725,8.56834332 121.327434,19.2890817 129.09078,36.2921962 M339.825551,204.866597 C344.400065,205.59452 347.614493,211.255651 346.138786,215.450177 C344.60218,219.804272 341.071782,222.282978 336.18218,221.503956 C332.464671,220.905123 329.492075,216.860305 330.08783,213.000158 L330.4444,210.706123 C330.998673,207.106845 335.795602,204.223837 339.825551,204.866597 M85.2591195,190.200548 C91.4708553,191.192926 95.8238365,198.867501 93.8265136,204.551044 C91.7435786,210.463183 86.9554759,213.824003 80.3236226,212.763493 C75.2760356,211.956681 71.2478512,206.469463 72.0607254,201.229668 L72.5390943,198.118063 C73.2928344,193.244022 79.7984759,189.330984 85.2591195,190.200548" id="Shape"></path>
                            </g>
                        </g>
                        <g id="caracol-copy">
                            <g id="Layer_1" stroke="#66B821">
                                <path d="M273.595557,203.418697 C261.580879,204.776041 249.053318,203.661631 235.932905,202.382952 C221.059311,200.93152 207.11767,202.320483 194.039549,204.311768 C182.16328,206.121044 169.368129,208.60745 158.462261,208.615934 C131.934621,208.632129 119.893799,202.545679 96.2942803,200.178812 L81.4168409,200.53203 C19.8240265,202.001199 33.9302197,165.174782 22.976678,122.79714 L19.8540152,107.398236 C17.9639621,98.0865535 2.01539015,95.7366531 0.200693182,80.7650037 C-0.183776515,77.6161218 1.04345076,74.499631 2.01462121,71.1687417 C3.66168939,65.5349963 9.52177652,61.7544871 17.0020189,61.4513985 C27.1227992,61.0395683 34.2424091,68.4825904 35.7456856,76.6359041 C37.732625,87.4391218 34.040947,92.9201661 27.6433712,101.46603 C24.3484659,105.871225 25.7794621,112.605498 28.0186136,120.967812 L31.7887235,135.031738 C33.0436326,139.703004 34.2193409,144.750624 40.3047273,145.699221 C44.7207462,146.387148 51.0698788,146.297686 51.2129015,140.230517 L51.7380871,118.115077 C51.9779962,108.079993 52.8568939,97.705572 45.0060227,90.4823469 C42.3008939,87.9951697 40.2485947,80.7819705 40.0571288,76.0358967 C39.5334811,63.0694133 50.6415795,54.6045277 62.7677538,56.0258819 C73.9919621,57.3415793 82.6479129,67.5686974 83.1646402,80.2883911 C83.5037424,88.6707565 78.7278598,95.5893506 73.2753106,99.0528893 C68.6424508,101.997399 64.3233182,103.871458 60.44325,107.87562 C56.9022841,111.527336 56.0218485,117.56597 56.5970152,123.884557 L58.1587311,140.890679 C60.0810795,161.875513 54.1494811,184.992764 80.2349811,188.636768 L101.765284,191.643745 C79.5144848,169.057863 72.4125606,133.15228 91.4807197,101.031063 C106.142087,76.3397565 133.24797,57.9423579 163.100504,60.3015129 C177.50889,61.4406015 194.058004,69.09031 204.634765,78.8600959 C209.697462,83.5390738 216.480277,88.7802694 220.293447,94.7078487 C228.125095,106.866096 232.700284,127.022642 230.616458,144.041875 C227.662962,168.143199 223.530682,175.506786 209.150746,195.076435 L244.403542,186.113343 C257.024144,182.323579 265.861564,176.888037 268.140701,161.424351 C268.934246,156.08521 268.864273,151.977705 268.703564,147.99128 L268.639742,146.490491 C268.241432,136.564148 266.869644,127.982037 266.515932,118.538476 C266.216814,110.579509 265.793129,100.057015 261.480148,94.7880554 C258.33211,90.9481624 250.142905,85.4408967 245.684595,81.6974059 C238.669561,75.813786 234.633398,70.911155 234.262769,61.7668266 C233.794485,50.1962472 242.884117,43.5560627 251.6185,39.2819742 C252.56814,38.8169299 261.946125,36.1053284 264.172973,36.0127823 C272.035379,35.6950406 279.95161,42.2419077 283.309568,47.0350258 C287.757883,53.3690369 289.527981,61.8871365 288.037777,70.5941845 C287.342655,74.6592731 275.517136,90.2124207 274.394485,91.1764428 C270.129178,94.8512952 273.279523,111.063063 275.52867,123.685583 C276.924295,131.521926 277.770898,138.917904 280.127697,146.522111 C302.122439,148.218018 307.346614,150.384369 314.869917,140.178845 C322.235587,130.17538 331.929606,105.055277 331.422875,92.6772325 C331.243712,88.1764059 325.348254,83.121845 322.31325,79.6212878 C309.993303,65.3884649 305.538837,56.4392546 307.005205,36.3467196 C307.548076,28.9561402 313.211314,19.4508819 317.428947,15.2523727 C327.725814,5.01291513 347.693633,0.882273063 364.127405,0.215940959 C375.856807,-0.26298524 391.156394,6.65021033 396.522053,15.1490295 C403.747777,26.5869594 407.202621,34.7850037 404.546705,49.6247749 C402.877337,58.9750185 394.434383,75.0024649 388.647345,80.6323542 C375.333159,93.5826421 357.726754,90.4391587 345.878167,101.230037 C343.672848,103.235974 337.512106,113.926594 336.184148,116.893469 L326.659295,136.475458 L313.981023,172.482841 C308.069417,189.28459 298.935186,200.550539 273.595557,203.418697 L273.595557,203.418697 Z M98.7395076,170.22086 C111.314742,199.382915 171.343534,210.123664 203.632068,189.26531 C151.347265,206.430303 102.421958,181.91869 116.458178,137.4711 L121.004148,126.83138 C131.024966,103.393303 152.560652,96.8973358 170.04172,96.4299779 C197.898856,95.6788118 212.314163,116.291919 208.549436,146.778155 C206.224932,165.606664 190.780784,181.528454 170.011731,175.539177 C160.675269,172.851483 142.632875,157.327642 148.017758,139.901207 C150.752875,131.025262 162.158553,126.516723 170.695318,127.69283 C193.824246,130.887985 187.145239,169.39797 168.183193,152.398018 C165.540348,150.028066 161.875583,144.126708 163.462674,140.683221 C165.931739,135.338683 175.358936,133.966686 176.546947,146.215166 C181.542746,135.762081 171.298167,132.647133 168.829871,132.303941 C149.941644,129.675631 154.049318,166.77583 177.605777,170.028827 C192.046458,169.033185 197.855027,163.894561 200.024205,148.191026 C201.185303,139.743878 194.875386,129.0039 186.227894,124.778399 C170.832958,117.260568 152.736739,118.226904 140.745129,132.532993 C128.877318,146.697177 131.860803,170.990535 151.043534,180.144118 L159.622591,184.240055 C175.09442,189.678683 190.072591,190.31648 201.497492,179.794756 C208.773966,173.095188 215.20153,161.416638 217.030068,148.108506 L217.982784,138.429723 C220.009708,117.8251 213.913557,92.4281292 178.839155,83.9732694 L168.499996,82.9768561 C136.129186,79.855738 105.004057,96.6459188 96.1320341,129.986432 C93.3884583,140.296841 92.5357045,150.653524 95.6176136,160.368554 L98.7395076,170.22086 L98.7395076,170.22086 Z M383.956045,46.1905424 C383.371652,31.6908782 367.240841,19.6891882 353.90897,22.7925683 C340.044223,26.022428 331.221413,36.1284649 331.850405,51.6152878 C332.320227,63.4041218 343.630557,74.0762325 355.622167,73.5888229 L362.766383,73.2965314 C373.945223,72.8368856 384.476617,58.9395424 383.956045,46.1905424 L383.956045,46.1905424 Z M272.613621,66.2398893 C272.421386,61.481476 267.12647,57.5374686 262.751205,58.5593321 C258.199083,59.618214 255.304027,62.9367638 255.507027,68.0190886 C255.667735,71.8906015 259.379405,75.3934723 263.314068,75.2338303 L265.658564,75.137428 C269.327174,74.9862694 272.783557,70.4237454 272.613621,66.2398893 L272.613621,66.2398893 Z M69.2383788,78.4043063 C69.0230758,72.9703063 62.9692159,68.4694797 57.9703409,69.6363321 C52.7753864,70.8432878 49.4658712,74.6330517 49.7027045,80.4387786 C49.8803295,84.8617122 54.1194924,88.8612472 58.6147121,88.6746125 L61.2913902,88.5681845 C65.4836477,88.3992878 69.4313826,83.1850849 69.2383788,78.4043063 L69.2383788,78.4043063 Z M23.7840644,84.6010406 C23.6717992,81.8547343 20.6129583,79.5811845 18.0869924,80.1680812 C15.4602955,80.7827417 13.7901591,82.6969041 13.9070379,85.6313875 C13.9985417,87.8632915 16.1369621,89.887738 18.4107159,89.7959631 L19.767125,89.7381218 C21.885553,89.6532878 23.8817197,87.0203506 23.7840644,84.6010406 L23.7840644,84.6010406 Z" id="Shape"></path>
                            </g>
                        </g>
                        <g id="tartaruga-copy" transform="translate(44.000000, 130.000000)">
                            <g id="Layer_1" stroke="#B02488">
                                <path d="M334.866624,158.175708 C354.593144,157.689055 355.430824,152.653411 368.117762,137.677813 C378.988673,124.846726 378.204193,105.273562 377.527015,82.8497443 C376.334966,43.6701324 373.76151,1.52292694 422.53183,0.314840183 C447.006709,-0.289652968 460.419516,5.89021005 476.622187,13.281758 L451.51251,59.9122877 L468.42482,57.368379 C458.989418,97.4583288 437.962645,120.114228 429.203518,133.240365 C415.927769,153.140963 385.846112,173.976187 350.709516,174.844247 L334.011811,174.1471 L306.729034,173.176493 L306.512626,196.319046 L285.788824,194.445297 L289.870826,173.762096 L282.499418,173.742306 L281.087353,195.905256 L261.362637,195.549037 L263.982981,173.154005 L187.480837,173.762096 L189.649429,194.762836 L170.450405,194.652192 L172.215936,173.225068 L166.00682,173.361799 L164.51721,192.988037 L145.205473,193.678886 L151.085467,172.781594 C118.451994,170.982507 110.79114,171.805589 76.7338809,171.766009 L21.2576087,167.78553 L28.4306427,153.146361 L0.843992439,143.576119 C-0.283134216,115.603018 19.8130832,86.2365251 51.2644253,85.4602192 C78.6094197,84.7846621 95.4405766,103.807306 103.349399,124.212548 C111.849737,146.13532 99.5983214,157.398502 130.874733,156.624895 C136.873752,145.845667 139.182108,99.910484 149.617497,88.5753379 C163.195316,73.8246256 185.917287,60.6634064 214.741974,58.820242 C232.520819,57.6850183 252.203155,55.4235662 269.738541,62.9617397 C298.578556,75.3547489 327.189539,100.968347 334.866624,158.175708 M413.519325,40.5766027 C415.425522,45.3162968 419.702291,47.9780457 425.562448,47.0713059 C430.018656,46.3804566 433.51906,41.9277169 432.738187,37.7250502 L432.275614,35.2243196 C431.553352,31.3095068 425.750002,28.212379 420.926802,28.9572009 C415.444457,29.8027717 411.678051,36.019516 413.519325,40.5766027 M49.4393819,133.163904 C51.4943592,138.262516 56.0975444,141.126662 62.3941248,140.151557 C67.1902741,139.408534 70.9548771,134.619365 70.1199017,130.096461 L69.6212609,127.408626 C68.8430926,123.195164 62.6015161,119.865954 57.4113233,120.664749 C51.5150983,121.575986 47.4619509,128.263192 49.4393819,133.163904" id="Shape"></path>
                            </g>
                        </g>
                        <g id="elefante-copy" transform="translate(36.000000, 290.000000)">
                            <g id="Layer_1" stroke="#0570B0">
                                <path d="M109.809345,209.29524 L111.319604,243.556208 L86.6705865,244.369236 L65.3353956,179.776409 L63.6335721,200.839581 L62.3919802,216.675345 C62.2107491,230.70208 48.5635715,247.782843 35.3647025,247.613396 C21.134088,247.430425 13.4428951,236.690013 8.15301416,224.847 C2.54915827,212.289604 1.5023103,203.384473 0.11525661,188.035572 L12.7624837,185.886058 C13.926178,197.503936 18.8718789,218.084224 26.5527384,227.287677 C36.2939092,238.964425 55.1419419,231.485674 54.3486585,212.020716 C53.9710938,202.741687 53.3137336,194.848466 52.1293726,187.415856 C49.0675211,196.548508 43.1608186,202.762371 34.4100598,206.048693 C50.4967031,176.500428 43.5821014,159.3067 36.689756,121.460291 C30.021565,84.8389936 29.0057171,58.9374249 51.8781927,36.648345 C61.2982347,27.4671661 73.9915644,17.1332684 88.0798966,10.2837796 C121.492391,-5.96406709 146.549178,9.69270288 180.606314,10.0578498 C223.461106,10.5160735 245.455247,-21.048853 307.646919,26.9612109 C317.63609,34.6730511 323.418793,48.2884984 326.521183,62.4528594 C330.364394,79.9886645 326.277157,105.337342 321.503943,127.940655 C315.512189,156.308358 317.627347,168.969968 323.785229,197.723502 C317.753731,193.099898 313.371596,186.334735 310.637232,177.424831 C308.564203,187.034003 306.9522,197.044121 306.85602,204.51253 C306.734405,213.985668 307.646919,227.819089 320.533403,227.983764 C340.656412,228.244696 349.200504,184.045208 350.570865,169.795725 L368.65582,173.68108 C365.890456,186.777843 362.118783,200.288281 357.993391,210.44955 C350.166275,226.086431 342.839134,240.253179 319.04858,239.946105 C301.96755,239.725744 296.300899,223.223329 296.852541,205.714572 L297.425645,187.754751 C297.922441,172.080479 298.344518,161.601 297.236465,149.370565 L267.667978,247.558505 L244.308245,248.967383 L247.526686,210.11145 L235.802307,210.953118 L231.095863,247.272115 L217.819096,247.291208 L214.248526,214.920412 L190.220305,214.895751 L138.235599,216.775581 L135.967826,236.92708 L126.305348,236.805364 L123.070214,208.80599 M272.19955,106.925214 C267.193439,107.560045 263.517945,113.529681 264.99164,118.072936 C266.522566,122.795185 270.28788,125.566006 275.634197,124.885035 C279.700768,124.367942 283.062287,120.120623 282.536081,115.962403 L282.222901,113.489109 C281.731669,109.618073 276.601557,106.368345 272.19955,106.925214 M79.152676,125.07278 C74.1457698,125.706019 70.4686865,131.675655 71.9431763,136.217319 C73.4756917,140.94116 77.2386214,143.711185 82.5865281,143.031805 C86.654689,142.513917 90.0146179,138.267393 89.487617,134.108377 L89.1752318,131.635083 C88.6840002,127.764048 83.5538887,124.514319 79.152676,125.07278" id="Shape"></path>
                            </g>
                        </g>
                        <g id="pato" transform="translate(369.000000, 304.000000)">
                            <g id="Layer_1" stroke="#FF4100">
                                <path d="M96.1918032,262.166207 C99.9579344,272.816983 113.125514,288.12895 120.060007,296.542128 C144.886862,326.652453 172.947778,336.535648 210.338891,337.546816 C249.878643,338.609911 283.87191,323.42257 302.009486,301.830223 C335.142188,262.41357 336.918839,179.816 337.367629,136.907939 C335.634468,105.079291 387.438667,133.192771 389.740912,71.0357039 C389.988903,64.3370726 387.154588,58.6958715 380.440326,47.2218101 C387.524724,48.9599609 394.784937,48.7267598 402.078462,47.7750726 C412.51629,46.4155196 409.771733,39.1881732 400.87367,38.6283017 C392.151421,38.3922682 386.728007,39.9208212 378.359238,42.2877654 C381.424887,34.8338268 382.371509,27.7858659 382.503833,21.1297207 C382.878595,2.75403911 370.18664,1.83162011 370.286577,20.5273631 C370.308785,25.0063352 370.506808,31.497257 372.376919,40.7847039 C360.987842,36.5842514 354.536376,31.7616145 339.730946,31.3641341 C294.552176,30.1433687 266.933572,68.8453128 292.991129,109.137179 C300.165285,120.226978 309.244715,128.963994 308.790373,146.533385 L308.770941,147.516229 C307.768799,185.852793 258.951595,209.092654 218.517966,208.001235 C185.01698,207.090145 145.568837,201.555631 127.051871,168.13895 C118.436962,152.588117 117.882683,147.168788 115.827505,126.264715 C113.995333,107.642615 131.186287,84.5217151 135.01164,60.4755642 C139.486581,32.3479218 128.024403,4.29486592 81.9406516,0.923363128 C54.088862,0.526826816 27.08931,14.9541397 23.1529163,44.9426704 C22.5357149,49.643514 22.4616878,53.1689106 18.154233,48.5672011 C15.6604434,45.9028547 13.6922466,41.954486 10.9190045,38.8378994 C2.68626018,29.5787765 -3.41820362,38.0873128 2.70569231,46.0699665 C6.71981448,51.3014134 13.2517851,56.030581 21.9805113,58.9328492 C15.852914,61.0892514 10.3823077,63.5260615 7.28149548,71.5172123 C3.96600452,80.0531285 10.6090158,81.1275531 15.1135679,77.7522737 C18.8945045,74.916095 20.6258145,73.5584302 23.5980045,68.0484637 C27.6250814,79.4488827 28.8298733,92.8801341 54.2572738,98.3731061 C71.678638,102.128872 87.4677036,107.534039 90.8044774,133.328726 C96.8487941,180.152112 78.729724,212.78705 96.1918032,262.166207 M79.2377353,35.6929888 C85.731767,37.1460112 89.8550792,45.5724078 87.3825724,51.4713575 C84.8203077,57.6053966 79.5551267,60.8598268 72.6141561,59.3057821 C67.335095,58.1265587 63.4292376,52.0397263 64.6053439,46.5429777 L65.3150792,43.2687207 C66.410681,38.1524581 73.5283914,34.4212402 79.2377353,35.6929888 M357.63071,53.8449106 C362.710824,54.9835363 365.936557,61.5764246 364.009075,66.1970168 C362.001088,70.9979385 357.879627,73.5442682 352.452511,72.3291676 C348.323647,71.4048603 345.260774,66.6398156 346.185188,62.3364525 L346.731138,59.7787933 C347.593554,55.7643352 353.159471,52.8488492 357.63071,53.8449106" id="Shape"></path>
                            </g>
                        </g>
                        <g id="cobra-copy" transform="translate(374.000000, 16.000000)">
                            <g id="Layer_1" stroke="#E00028">
                                <path d="M40.0137052,81.9891429 C36.5415438,80.0369143 33.5803586,77.4450857 31.1999303,74.2470857 L11.6950498,94.2084 L11.869502,82.2287143 L0.517729084,82.0125429 L26.4435757,64.935 C25.140249,60.9636857 24.3996713,56.4742286 24.2781175,51.5034 C23.5848108,22.6010571 63.3238944,6.70688571 87.6369024,3.74177143 C118.124392,0.0178285714 145.987221,17.5344 146.686155,46.7587714 C147.164492,66.6331714 138.175139,84.6868286 138.656853,104.778514 C139.05753,121.576371 160.618695,145.882286 178.644671,129.759686 C191.850139,117.948257 193.498994,94.7220857 201.788287,76.8924 C205.104004,69.7531714 218.291464,63.4251429 227.065847,65.4843429 C239.095169,68.3057143 241.847012,73.9172571 244.635996,86.5064571 C248.503207,103.967314 244.970269,139.589914 272.36489,138.945857 C292.435896,138.4734 295.205747,112.197429 298.842231,94.692 C303.839442,70.6668857 293.67507,56.0597143 324.728685,50.7657429 C380.037908,41.3344286 348.505956,129.693943 387.101534,128.784686 C422.537839,127.956771 412.682978,74.7173143 421.090448,47.8797429 C431.329104,15.2088857 445.890797,1.47865714 489.58488,0.451285714 C522.969402,-0.333171429 554.176086,21.4555714 555.019084,56.7472286 C555.353357,70.5788571 547.735986,81.5601429 536.941335,88.8642857 L564.459761,113.88 L553.209283,112.359 L551.505279,124.213886 L529.41738,93.132 C519.523127,97.8064286 508.161225,99.8377714 498.042998,98.7591429 C468.835199,95.6458286 434.777629,20.4571714 428.59752,88.0653429 C427.478775,100.2924 425.527161,111.913286 422.72242,124.131429 C419.197361,139.494086 404.496106,151.6944 385.774572,152.133429 C366.999014,152.578029 354.442958,147.163714 353.15989,129.613714 C351.995,113.588057 354.614034,90.9736286 333.392769,89.9406857 C313.471454,88.9656857 327.83506,132.792771 308.797261,147.823371 C293.501743,159.903343 258.736235,157.883143 244.955637,146.368114 C236.885817,139.623343 236.254412,127.911086 236.00005,113.6226 C235.72993,98.2521429 220.549213,97.1991429 213.634153,105.389143 C204.20248,116.557629 203.679124,148.955486 175.547301,149.616257 C134.304552,150.583457 125.26005,116.955429 129.47504,84.8885143 C136.110976,34.4403429 80.3222908,104.674886 40.0137052,81.9891429 M472.862231,15.7448571 C463.984303,17.6424857 458.318546,28.8087429 461.671404,36.6399429 C465.157072,44.7887143 472.337749,49.1210571 481.826823,47.0930571 C489.044641,45.5408571 494.415518,37.4845714 492.819562,30.1893429 L491.870767,25.8469714 C490.38511,19.0453714 480.677689,14.0745429 472.862231,15.7448571 M95.1057072,23.3030571 C89.9734363,24.4006286 86.7061155,30.8467714 88.6408466,35.3707714 C90.6532371,40.0775143 94.8018227,42.5813143 100.285249,41.4057429 C104.451843,40.5109714 107.55259,35.8566 106.630807,31.6446 L106.082689,29.1341143 C105.226185,25.2107143 99.6167032,22.3380857 95.1057072,23.3030571" id="Shape"></path>
                            </g>
                        </g>
                    </g>
                </g>
            </g>
        </g>
    </g>
</svg>