<?xml version="1.0" encoding="UTF-8" standalone="no"?>
<svg width="866px" height="504px" viewBox="0 0 866 504" version="1.1" xmlns="http://www.w3.org/2000/svg" xmlns:xlink="http://www.w3.org/1999/xlink">
    <!-- Generator: Sketch 41 (35326) - http://www.bohemiancoding.com/sketch -->
    <title>comprovante</title>
    <desc>Created with Sketch.</desc>
    <defs>
        <rect id="path-1" x="0" y="0" width="866" height="504"></rect>
        <filter x="-50%" y="-50%" width="200%" height="200%" filterUnits="objectBoundingBox" id="filter-2">
            <feOffset dx="0" dy="2" in="SourceAlpha" result="shadowOffsetOuter1"></feOffset>
            <feGaussianBlur stdDeviation="2" in="shadowOffsetOuter1" result="shadowBlurOuter1"></feGaussianBlur>
            <feColorMatrix values="0 0 0 0 0   0 0 0 0 0   0 0 0 0 0  0 0 0 0.5 0" type="matrix" in="shadowBlurOuter1"></feColorMatrix>
        </filter>
        <rect id="path-3" x="0" y="0" width="866" height="504"></rect>
    </defs>
    <g id="Page-1" stroke="none" stroke-width="1" fill="none" fill-rule="evenodd">
        <g id="comprovante">
            <g id="Rectangle-3-Copy-6">
                <use fill="black" fill-opacity="1" filter="url(#filter-2)" xlink:href="#path-1"></use>
                <use fill="#FFFFFF" fill-rule="evenodd" xlink:href="#path-1"></use>
            </g>
            <g id="Group-46-+-Group-46-Copy-Mask-Copy-Copy-Copy">
                <mask id="mask-4" fill="white">
                    <use xlink:href="#path-3"></use>
                </mask>
                <use id="Mask" fill="#FFFFFF" xlink:href="#path-3"></use>
                <g id="Group-46" opacity="0.5" mask="url(#mask-4)">
                    <g transform="translate(-122.000000, -24.000000)">
                        <g id="porco" transform="translate(46.000000, 403.000000)">
                            <g id="Layer_1" fill="#F22B92">
                                <path d="M50.5937736,14.2300708 C34.3843396,17.6606975 23.2667296,26.1268937 20.5271069,39.3007112 L19.1424214,45.9573924 C17.0479245,56.0176349 17.9829245,60.6261335 14.0315723,72.4811281 C12.0785535,78.3423678 9.37801887,79.7392234 0.0951257862,80.5887956 L1.8872956,99.2435313 L22.6070755,102.288564 L16.9275472,105.598978 C22.2656604,108.25455 28.2354088,110.291837 34.8361006,111.708376 L35.7299371,126.048466 L39.5263208,125.817883 L39.470283,113.112613 L44.7274528,114.264826 L45.8637736,126.159891 L49.6656918,126.221755 L49.5491195,115.523191 C67.5818553,118.653638 86.6066667,121.645594 106.58239,119.762967 L107.113711,128.828117 L111.306509,128.938839 L111.224528,119.841351 C111.602264,119.593545 114.806101,118.779474 115.443962,118.790371 L116.538082,128.87803 L120.331006,128.737079 L120.875126,117.031823 L139.646384,114.139692 L138.378616,108.72345 C138.617296,108.464395 147.97283,111.990981 163.669277,110.463016 L164.755786,94.0726349 C157.035031,90.9256676 153.298491,93.4230654 152.16805,83.8000872 L151.323333,74.186951 C150.501792,64.8507956 148.063459,51.4499101 144.594308,43.1773896 L141.775472,36.4539237 C134.847893,22.9539155 126.641478,21.2220817 117.208459,17.2940845 C122.370849,15.4986294 123.155723,10.699267 122.715031,5.06228338 C117.703113,6.94596458 114.436667,10.1224578 115.015031,16.1337875 C108.57761,14.3000191 100.140126,11.735485 91.9105346,11.600158 L82.9586792,11.4525286 C71.0534277,11.2560409 59.6912579,12.630752 52.953239,13.8385014 C55.7758805,9.97061035 55.7530503,5.37160218 53.7851572,0.269950954 C49.527327,3.35962398 47.5511321,7.56319619 50.5937736,14.2300708 M133.185786,80.3276322 C134.978648,80.613049 136.238459,82.8327629 135.660094,84.4774251 C135.057862,86.184654 133.674214,87.1565477 131.757862,86.8510954 C130.300881,86.6162943 129.135849,85.0303324 129.36934,83.5167793 L129.509088,82.6172943 C129.726321,81.2060272 131.606352,80.0756076 133.185786,80.3276322 M33.4150943,74.5771144 C35.8496226,74.9662234 37.5556604,77.9754033 36.7728616,80.2039046 C35.9565094,82.5220381 34.0799371,83.8398065 31.4807547,83.4239837 C29.5024843,83.1076349 27.9237421,80.9561117 28.242327,78.9016022 L28.4298113,77.6815504 C28.7252201,75.7704523 31.2749371,74.2361608 33.4150943,74.5771144" id="Shape"></path>
                            </g>
                        </g>
                        <g id="caracol-copy" transform="translate(66.000000, 0.000000)">
                            <g id="Layer_1" fill="#66B821">
                                <path d="M109.842551,81.756797 C105.018924,82.3023321 99.9893864,81.8544354 94.7218314,81.3405166 C88.7504129,80.7571661 83.1531534,81.3154096 77.9025777,82.1157343 C73.1345189,82.8429077 67.9975492,83.8422288 63.6190852,83.8456384 C52.9688258,83.8521476 48.1347027,81.4059188 38.6600189,80.4546421 L32.6870568,80.5966052 C7.9589072,81.1870849 13.6222311,66.3860369 9.22462689,49.3538745 L7.97094697,43.1648413 C7.21213258,39.4223469 0.80913447,38.4778893 0.0805738636,32.4605756 C-0.073782197,31.1949963 0.418922348,29.9424354 0.808825758,28.6037048 C1.47008712,26.3394244 3.8227822,24.8199852 6.82593371,24.6981697 C10.8892027,24.5326494 13.7475682,27.5241033 14.3511004,30.8010332 C15.1488125,35.1429963 13.6666856,37.3459041 11.0982008,40.7806052 C9.77536932,42.5511144 10.3498826,45.2577122 11.2488523,48.6186421 L12.7624678,54.2711292 C13.266286,56.1485756 13.7383068,58.1772841 16.1814545,58.5585387 C17.9543883,58.8350258 20.5034242,58.7990701 20.5608447,56.3605904 L20.7716951,47.4720886 C20.8680133,43.4388487 21.2208712,39.2692251 18.0689205,36.3661107 C16.9828712,35.3664797 16.1589186,32.4673948 16.0820492,30.5598819 C15.8718163,25.3484723 20.3314716,21.9463173 25.1998617,22.5175793 C29.7061326,23.0463764 33.1813049,27.156797 33.3887595,32.2690185 C33.5249015,35.6380074 31.6074905,38.4186863 29.4184129,39.8107306 C27.5584223,40.9941697 25.8243864,41.7473801 24.266625,43.3567085 C22.8450057,44.8243838 22.4915303,47.2513948 22.722447,49.7909225 L23.3494413,56.6259188 C24.1212216,65.0600148 21.7398163,74.3511587 32.2125663,75.8157343 L40.8565057,77.0242804 C31.923303,67.9467011 29.0720379,53.5157491 36.7274811,40.605786 C42.6136951,30.6820074 53.4961061,23.2878376 65.4812367,24.2360148 C71.2658845,24.6938303 77.9099867,27.7683542 82.156322,31.6949668 C84.1888826,33.5755129 86.9120322,35.6820221 88.4429356,38.0643985 C91.5871686,42.9509668 93.4240057,51.0521624 92.5873958,57.892428 C91.4016326,67.5790849 89.7426136,70.5386125 83.9693883,78.4039262 L98.1226042,74.8015351 C103.189496,73.2783764 106.737525,71.0937565 107.652547,64.8786863 C107.971138,62.7328118 107.943045,61.0819483 107.878525,59.4797491 L107.852902,58.8765609 C107.692989,54.8870258 107.142246,51.4377565 107.000239,47.6422583 C106.88015,44.4434391 106.710049,40.2143026 104.978483,38.0966347 C103.714616,36.5533284 100.426831,34.3398819 98.6369186,32.835321 C95.8205379,30.4706125 94.200108,28.5001771 94.0513087,24.8249446 C93.863303,20.1745683 97.512589,17.505786 101.01925,15.7879705 C101.400509,15.6010627 105.165562,14.5112325 106.059593,14.4740369 C109.216174,14.3463321 112.394366,16.9776089 113.742511,18.9040295 C115.528411,21.4497565 116.239066,24.8732989 115.640782,28.3727823 C115.361706,30.0065978 110.614023,36.2576236 110.163303,36.6450775 C108.450877,38.1220517 109.71567,44.637786 110.618653,49.710952 C111.178966,52.8604871 111.518858,55.8330332 112.465061,58.8892694 C121.295462,59.5708782 123.392852,60.4415646 126.413292,56.3398229 C129.370445,52.3192915 133.262379,42.2231734 133.058937,37.2482657 C132.987008,35.439321 130.620112,33.4078229 129.401625,32.0009004 C124.455439,26.2805314 122.66707,22.6837196 123.255784,14.6082509 C123.473735,11.6378745 125.7474,7.81757934 127.440686,6.13014022 C131.57465,2.01476015 139.591286,0.354597786 146.189081,0.0867896679 C150.898176,-0.105697417 157.040621,2.67281181 159.194814,6.08860517 C162.095782,10.6856679 163.482826,13.9805756 162.416534,19.9448856 C161.74632,23.7028782 158.356661,30.1445314 156.033294,32.407262 C150.687943,37.6121624 143.619362,36.3487528 138.862417,40.6857565 C137.97703,41.4919705 135.503629,45.788679 134.970483,46.981107 L131.146466,54.8513801 L126.05642,69.3232472 C123.683042,76.0761033 120.01585,80.6040443 109.842551,81.756797 L109.842551,81.756797 Z M39.6417235,68.4141255 C44.6904015,80.1347601 68.7906307,84.4516162 81.7537614,76.0683542 C60.762572,82.967203 41.1201458,73.1156458 46.7553769,55.2515424 L48.580483,50.9752915 C52.6036193,41.555203 61.2497197,38.9443838 68.2679811,38.7565461 C79.4520038,38.4546421 85.2394299,46.7393358 83.7279754,58.9921771 C82.7947386,66.5596162 76.5942557,72.9588044 68.2559413,70.551631 C64.5075587,69.4714096 57.2639375,63.2321624 59.4258485,56.2282362 C60.5239375,52.6608708 65.1030644,50.8488266 68.5303864,51.3215203 C77.8161383,52.6056974 75.1346648,68.0833948 67.5218239,61.2508782 C66.4607803,60.2983616 64.9894583,57.926524 65.6266402,56.5425387 C66.6179148,54.3944945 70.4027254,53.8430701 70.8796856,58.7659041 C72.8853883,54.5646642 68.7724167,53.3127232 67.7814508,53.1747897 C60.1982462,52.1184354 61.8473864,67.0295203 71.3047822,68.3369446 C77.1023958,67.9367823 79.4344072,65.8714982 80.3052841,59.5600295 C80.7714394,56.1650037 78.2381477,51.8484576 74.7663712,50.1501697 C68.5856458,47.1286494 61.3204148,47.5170332 56.5060492,53.2668487 C51.7413864,58.959631 52.9391894,68.7234686 60.6406307,72.4024207 L64.0849318,74.0486347 C70.2965284,76.2344945 76.3099318,76.4908339 80.8967765,72.2620074 C83.8181193,69.5693579 86.3986439,64.8755867 87.1327614,59.5268635 L87.5152557,55.6368266 C88.3290208,47.3555424 85.8815511,37.1481476 71.7999564,33.7500221 L67.6490133,33.3495498 C54.6528504,32.0951292 42.1568011,38.8433358 38.5948807,52.2433506 C37.4933958,56.3872472 37.1510341,60.5497417 38.3883523,64.4543469 L39.6417235,68.4141255 L39.6417235,68.4141255 Z M154.149841,18.5646199 C153.91522,12.7370037 147.439057,7.91335793 142.086606,9.16064945 C136.520218,10.4587749 132.978055,14.5205314 133.230581,20.7449004 C133.419205,25.4829963 137.960051,29.7722657 142.774417,29.576369 L145.642661,29.458893 C150.130718,29.274155 154.358839,23.6886199 154.149841,18.5646199 L154.149841,18.5646199 Z M109.448326,26.6227306 C109.371148,24.7102583 107.245356,23.125107 105.488784,23.5358081 C103.661208,23.9613875 102.498907,25.2951587 102.580407,27.3378155 C102.644928,28.8938303 104.135081,30.3016827 105.714761,30.2375203 L106.656025,30.1987749 C108.12889,30.1380221 109.516551,28.3042804 109.448326,26.6227306 L109.448326,26.6227306 Z M27.7976742,31.5117786 C27.7112348,29.3277786 25.2807443,27.5188339 23.2738068,27.9878081 C21.1881477,28.4729004 19.8594508,29.996059 19.9545341,32.3294613 C20.0258466,34.1070996 21.7277765,35.7145683 23.5325076,35.6395572 L24.6071345,35.5967823 C26.290233,35.5289004 27.875161,33.4332399 27.7976742,31.5117786 L27.7976742,31.5117786 Z M9.54877462,34.0023321 C9.50370265,32.8985535 8.27564583,31.9847823 7.26152652,32.2206642 C6.20696591,32.4677048 5.53644318,33.2370332 5.58336742,34.4164428 C5.62010417,35.313476 6.47863258,36.1271292 7.39149432,36.0902435 L7.9360625,36.0669963 C8.78656439,36.0329004 9.58798106,34.9746863 9.54877462,34.0023321 L9.54877462,34.0023321 Z" id="Shape"></path>
                            </g>
                        </g>
                        <g id="tartaruga-copy" transform="translate(31.000000, 55.000000)">
                            <g id="Layer_1" fill="#B02488">
                                <path d="M149.531637,70.6571689 C158.340335,70.4397808 158.714393,68.1903562 164.379629,61.5007489 C169.233936,55.7690959 168.883633,47.0257534 168.581246,37.0090228 C168.048947,19.5074703 166.899794,0.680292237 188.677735,0.140639269 C199.606769,-0.129388128 205.596136,2.63115982 212.831291,5.93296804 L201.618794,26.7628493 L209.170832,25.626484 C204.957539,43.5346849 195.568225,53.6550868 191.656917,59.5185388 C185.728752,68.4081461 172.296062,77.7152511 156.606136,78.1030137 L149.149928,77.7915982 L136.967053,77.3580274 L136.870418,87.6958174 L127.616393,86.8588128 L129.439174,77.6196164 L126.147539,77.6107763 L125.516994,87.5109772 L116.709102,87.3518539 L117.879193,77.3479817 L83.7178582,77.6196164 L84.6862231,87.0006575 L76.1130737,86.9512329 L76.9014556,77.379726 L74.1288318,77.4408037 L73.4636597,86.2078539 L64.8401796,86.5164566 L67.4658374,77.1816256 C52.8936578,76.3779726 49.4727732,76.7456438 34.2648147,76.7279635 L9.4923913,74.9498813 L12.6954442,68.4105571 L0.376877127,64.1355251 C-0.126431002,51.6399269 8.84735161,38.5218995 22.8916616,38.1751233 C35.1023195,37.8733516 42.6181191,46.3707763 46.1497316,55.4858082 C49.9454802,65.2787215 44.4747221,70.3099909 58.4409187,69.9644201 C61.1197259,65.1493333 62.1505009,44.6300639 66.8103289,39.5666484 C72.87338,32.9774977 83.0196692,27.0983744 95.8910699,26.275032 C103.830051,25.7679269 112.619019,24.7577352 120.449285,28.1250411 C133.327531,33.6610046 146.103505,45.1026119 149.531637,70.6571689 M184.653284,18.125589 C185.504478,20.2428128 187.414231,21.4318174 190.03103,21.0267763 C192.020909,20.7181735 193.583983,18.7291324 193.235291,16.8517991 L193.028733,15.7347215 C192.706214,13.9859726 190.114781,12.602484 187.961025,12.9351963 C185.512934,13.3129132 183.831079,16.0899361 184.653284,18.125589 M22.0767051,59.4843836 C22.9943365,61.7619361 25.0498469,63.0413516 27.8615274,62.6057717 C30.0032042,62.273863 31.6842533,60.1345388 31.3114026,58.1141553 L31.0887391,56.9134977 C30.7412552,55.0313425 27.9541361,53.5441826 25.6365028,53.9010046 C23.0035974,54.3080548 21.1937013,57.2952329 22.0767051,59.4843836" id="Shape"></path>
                            </g>
                        </g>
                        <g id="elefante-copy" transform="translate(18.000000, 143.000000)">
                            <g id="Layer_1" fill="#0570B0">
                                <path d="M53.1787441,100.865176 L53.9060559,117.376486 L42.0355613,117.768307 L31.7609419,86.6392332 L30.9413763,96.7901597 L30.3434495,104.421853 C30.256172,111.181725 23.6839527,119.413419 17.3276301,119.331757 C10.4744387,119.243578 6.77050753,114.067476 4.22300215,108.36 C1.52429247,102.308243 1.02015054,98.0166134 0.352172043,90.6195527 L6.44283441,89.5836422 C7.00324731,95.1826198 9.38500215,105.100831 13.083957,109.53623 C17.7751183,115.163578 26.8519699,111.559361 26.4699398,102.178658 C26.2881118,97.7068371 25.9715398,93.9028754 25.4011742,90.3208946 C23.9266452,94.7221725 21.0820903,97.7168051 16.8678925,99.3005751 C24.6149118,85.0604473 21.284972,76.7743131 17.9657505,58.5350799 C14.7544774,40.886262 14.2652645,28.4035783 25.2802108,17.661853 C29.8167226,13.2371885 35.9295871,8.25699681 42.7142581,4.95603834 C58.8050753,-2.8742492 70.8719441,4.67118211 87.2732086,4.84715655 C107.911256,5.06798722 118.503213,-10.1440256 148.453531,12.9933546 C153.264125,16.7099042 156.048963,23.2715655 157.543015,30.0977636 C159.393832,38.548754 157.425497,50.764984 155.126809,61.658147 C152.241295,75.3293291 153.259914,81.4313099 156.225432,95.2884345 C153.320778,93.0601917 151.210426,89.7998722 149.893609,85.5059425 C148.895277,90.136869 148.118968,94.9610224 148.072649,98.5602556 C148.014082,103.125623 148.453531,109.792332 154.659415,109.871693 C164.350271,109.997444 168.464942,88.6964856 169.124882,81.8292652 L177.834249,83.7017252 C176.502503,90.0134185 174.686138,96.5244728 172.699428,101.42147 C168.930039,108.957316 165.401428,115.784665 153.944353,115.636677 C145.718456,115.530479 142.989505,107.577508 143.255166,99.1395527 L143.531161,90.4842173 C143.770409,82.9303514 143.973673,77.88 143.440056,71.9858147 L129.200439,119.305304 L117.950839,119.984281 L119.500778,101.25853 L113.854542,101.664153 L111.588009,119.167284 L105.194172,119.176486 L103.474654,103.576102 L91.9031226,103.564217 L66.8682839,104.47016 L65.7761677,114.181725 L61.1229032,114.123067 L59.5649247,100.629393 M131.382757,51.5302236 C128.97191,51.8361661 127.201862,54.713099 127.911566,56.9026198 C128.64883,59.1784026 130.462133,60.513738 133.036817,60.1855591 C134.9952,59.9363578 136.614043,57.8894569 136.360632,55.8854952 L136.209811,54.6935463 C135.973243,52.8279872 133.50268,51.261853 131.382757,51.5302236 M38.4150796,60.2760383 C36.0038495,60.5812141 34.2330366,63.458147 34.9431226,65.646901 C35.6811527,67.9234505 37.4933075,69.2584026 40.068757,68.9309904 C42.0279054,68.6814058 43.6459828,66.6348882 43.3921892,64.6305431 L43.2417505,63.4385942 C43.0051828,61.5730351 40.5346194,60.006901 38.4150796,60.2760383" id="Shape"></path>
                            </g>
                        </g>
                        <g id="pato" transform="translate(76.000000, 252.000000)">
                            <g id="Layer_1" fill="#FF4100">
                                <path d="M33.6318529,91.5254804 C34.9486176,95.2437989 39.5524412,100.589397 41.9769706,103.526542 C50.6572647,114.03843 60.4682941,117.488777 73.5414706,117.841788 C87.3658824,118.212927 99.2510588,112.910838 105.592559,105.372682 C117.176853,91.611838 117.798029,62.776 117.954941,47.7962626 C117.348971,36.684486 135.461441,46.4992514 136.266382,24.7994469 C136.353088,22.4608715 135.362118,20.4914581 133.014588,16.4857207 C135.491529,17.0925307 138.029941,17.0111173 140.58,16.6788715 C144.229412,16.2042346 143.269824,13.6810782 140.158765,13.4856201 C137.109176,13.4032179 135.212971,13.9368547 132.286971,14.7631844 C133.358824,12.1609218 133.689794,9.70039106 133.736059,7.37664804 C133.867088,0.961469274 129.429559,0.639441341 129.4645,7.16635754 C129.472265,8.73002235 129.5415,10.9960838 130.195353,14.2384469 C126.213353,12.7720168 123.957706,11.0883743 118.781235,10.9496089 C102.985235,10.5234246 93.3288529,24.0347542 102.439441,38.1011453 C104.947765,41.9727318 108.122235,45.022933 107.963382,51.1566257 L107.956588,51.4997486 C107.606206,64.8835196 90.5380882,72.9968436 76.4011471,72.6158156 C64.6880882,72.297743 50.8957059,70.3655754 44.4215588,58.6993966 C41.4095,53.2704078 41.2157059,51.3784525 40.4971471,44.080581 C39.8565588,37.5793743 45.8670882,29.507581 47.2045588,21.1127709 C48.7691471,11.2930615 44.7615882,1.49939106 28.6491765,0.322357542 C18.9112647,0.183921788 9.47132353,5.22067598 8.09502941,15.6900447 C7.87923529,17.3311676 7.85335294,18.5619274 6.34732353,16.9554134 C5.47541176,16.025257 4.78726471,14.6468324 3.81764706,13.5587933 C0.939205882,10.3263184 -1.19511765,13.2967542 0.946,16.0835978 C2.34947059,17.9099609 4.63326471,19.5609721 7.68511765,20.5741899 C5.54270588,21.3270168 3.63,22.1777374 2.54585294,24.9675475 C1.38664706,27.9475419 3.70926471,28.3226369 5.28420588,27.1442849 C6.60614706,26.1541397 7.21147059,25.680162 8.25064706,23.7565642 C9.65864706,27.7365922 10.0798824,32.4256089 18.9701471,34.3432737 C25.0612353,35.6544581 30.5816176,37.5414693 31.7482647,46.5467151 C33.8615588,62.8933408 27.5265294,74.2866034 33.6318529,91.5254804 M27.7041471,12.4608659 C29.9746765,12.9681341 31.4163235,15.9098939 30.5518529,17.9692905 C29.656,20.1107598 27.8151176,21.2469218 25.3883235,20.7043855 C23.5425882,20.2927039 22.1769706,18.1677151 22.5881765,16.2487318 L22.8363235,15.105648 C23.2193824,13.3194972 25.7079706,12.0168827 27.7041471,12.4608659 M125.039588,18.7979274 C126.815765,19.1954358 127.943588,21.497095 127.269676,23.1102011 C126.567618,24.7862626 125.126618,25.6752179 123.229118,25.2510112 C121.785529,24.928324 120.714647,23.2647877 121.037853,21.7624302 L121.228735,20.8695196 C121.530265,19.4680223 123.476294,18.4501899 125.039588,18.7979274" id="Shape"></path>
                            </g>
                        </g>
                        <g id="cobra-copy" transform="translate(0.000000, 345.000000)">
                            <g id="Layer_1" fill="#E00028">
                                <path d="M16.7136892,34.1621429 C15.2633705,33.3487143 14.0264861,32.2687857 13.0321833,30.9362857 L4.88501195,39.2535 L4.95788048,34.2619643 L0.21625498,34.1718929 L11.0454582,27.05625 C10.5010598,25.4015357 10.1917211,23.5309286 10.1409482,21.45975 C9.85135458,9.41710714 26.4503347,2.79453571 36.6058566,1.55907143 C49.3404542,0.00742857143 60.9787331,7.306 61.2706773,19.4828214 C61.4704781,27.7638214 57.7156335,35.2861786 57.9168446,43.6577143 C58.0842072,50.6568214 67.0902869,60.7842857 74.6197211,54.0665357 C80.1356335,49.1451071 80.8243586,39.4675357 84.2867888,32.0385 C85.671761,29.0638214 91.1801514,26.4271429 94.8452032,27.2851429 C99.8698406,28.4607143 101.019283,30.7988571 102.184239,36.0443571 C103.79957,43.3197143 102.323865,58.1624643 113.766574,57.8941071 C122.150215,57.69725 123.307179,46.7489286 124.826135,39.455 C126.913466,29.4445357 122.667817,23.3582143 135.638884,21.1523929 C158.741498,17.2226786 145.570629,54.0391429 161.691968,53.6602857 C176.493681,53.3153214 172.377315,31.1322143 175.889108,19.9498929 C180.165785,6.33703571 186.248191,0.616107143 204.499171,0.188035714 C218.443857,-0.138821429 231.478861,8.93982143 231.83098,23.6446786 C231.970606,29.4078571 228.788837,33.9833929 224.27992,37.0267857 L235.774343,47.45 L231.075028,46.81625 L230.363267,51.7557857 L221.137171,38.805 C217.004351,40.7526786 212.258494,41.5990714 208.03212,41.1496429 C195.832048,39.8524286 181.606231,8.52382143 179.024805,36.6938929 C178.557506,41.7885 177.742319,46.6305357 176.570781,51.7214286 C175.098367,58.1225357 168.957665,63.206 161.137697,63.3889286 C153.295163,63.5741786 148.05051,61.3182143 147.514574,54.0057143 C147.028,47.3283571 148.121968,37.9056786 139.257865,37.4752857 C130.936749,37.0690357 136.936414,55.3303214 128.984343,61.5930714 C122.595418,66.6263929 108.073896,65.7846429 102.317753,60.9867143 C98.946996,58.1763929 98.683259,53.2962857 98.577012,47.34275 C98.4641833,40.9383929 92.1232112,40.4996429 89.2347968,43.9121429 C85.2951952,48.5656786 85.0765896,62.0647857 73.3259522,62.3401071 C56.0988924,62.7431071 52.321012,48.7314286 54.0816096,35.3702143 C56.8534343,14.3501429 33.5505498,43.6145357 16.7136892,34.1621429 M197.514135,6.56035714 C193.805833,7.35103571 191.439251,12.0036429 192.839737,15.2666429 C194.295697,18.6619643 197.29506,20.4671071 201.258637,19.6221071 C204.273514,18.9753571 206.516924,15.6185714 205.850295,12.5788929 L205.453984,10.7695714 C204.833426,7.93557143 200.778645,5.86439286 197.514135,6.56035714 M39.7255697,9.70960714 C37.5818247,10.1669286 36.2170677,12.8528214 37.0252032,14.7378214 C37.8657769,16.6989643 39.5986375,17.7422143 41.8890598,17.2523929 C43.6294422,16.8795714 44.9246215,14.94025 44.5395936,13.18525 L44.3106454,12.1392143 C43.9528845,10.5044643 41.6098088,9.30753571 39.7255697,9.70960714" id="Shape"></path>
                            </g>
                        </g>
                    </g>
                </g>
                <g id="Group-46-Copy" opacity="0.5" mask="url(#mask-4)">
                    <g transform="translate(866.000000, 242.000000) scale(-1, 1) translate(-866.000000, -242.000000) translate(744.000000, -24.000000)">
                        <g id="porco" transform="translate(46.000000, 403.000000)">
                            <g id="Layer_1" fill="#F22B92">
                                <path d="M50.5937736,14.2300708 C34.3843396,17.6606975 23.2667296,26.1268937 20.5271069,39.3007112 L19.1424214,45.9573924 C17.0479245,56.0176349 17.9829245,60.6261335 14.0315723,72.4811281 C12.0785535,78.3423678 9.37801887,79.7392234 0.0951257862,80.5887956 L1.8872956,99.2435313 L22.6070755,102.288564 L16.9275472,105.598978 C22.2656604,108.25455 28.2354088,110.291837 34.8361006,111.708376 L35.7299371,126.048466 L39.5263208,125.817883 L39.470283,113.112613 L44.7274528,114.264826 L45.8637736,126.159891 L49.6656918,126.221755 L49.5491195,115.523191 C67.5818553,118.653638 86.6066667,121.645594 106.58239,119.762967 L107.113711,128.828117 L111.306509,128.938839 L111.224528,119.841351 C111.602264,119.593545 114.806101,118.779474 115.443962,118.790371 L116.538082,128.87803 L120.331006,128.737079 L120.875126,117.031823 L139.646384,114.139692 L138.378616,108.72345 C138.617296,108.464395 147.97283,111.990981 163.669277,110.463016 L164.755786,94.0726349 C157.035031,90.9256676 153.298491,93.4230654 152.16805,83.8000872 L151.323333,74.186951 C150.501792,64.8507956 148.063459,51.4499101 144.594308,43.1773896 L141.775472,36.4539237 C134.847893,22.9539155 126.641478,21.2220817 117.208459,17.2940845 C122.370849,15.4986294 123.155723,10.699267 122.715031,5.06228338 C117.703113,6.94596458 114.436667,10.1224578 115.015031,16.1337875 C108.57761,14.3000191 100.140126,11.735485 91.9105346,11.600158 L82.9586792,11.4525286 C71.0534277,11.2560409 59.6912579,12.630752 52.953239,13.8385014 C55.7758805,9.97061035 55.7530503,5.37160218 53.7851572,0.269950954 C49.527327,3.35962398 47.5511321,7.56319619 50.5937736,14.2300708 M133.185786,80.3276322 C134.978648,80.613049 136.238459,82.8327629 135.660094,84.4774251 C135.057862,86.184654 133.674214,87.1565477 131.757862,86.8510954 C130.300881,86.6162943 129.135849,85.0303324 129.36934,83.5167793 L129.509088,82.6172943 C129.726321,81.2060272 131.606352,80.0756076 133.185786,80.3276322 M33.4150943,74.5771144 C35.8496226,74.9662234 37.5556604,77.9754033 36.7728616,80.2039046 C35.9565094,82.5220381 34.0799371,83.8398065 31.4807547,83.4239837 C29.5024843,83.1076349 27.9237421,80.9561117 28.242327,78.9016022 L28.4298113,77.6815504 C28.7252201,75.7704523 31.2749371,74.2361608 33.4150943,74.5771144" id="Shape"></path>
                            </g>
                        </g>
                        <g id="caracol-copy" transform="translate(66.000000, 0.000000)">
                            <g id="Layer_1" fill="#66B821">
                                <path d="M109.842551,81.756797 C105.018924,82.3023321 99.9893864,81.8544354 94.7218314,81.3405166 C88.7504129,80.7571661 83.1531534,81.3154096 77.9025777,82.1157343 C73.1345189,82.8429077 67.9975492,83.8422288 63.6190852,83.8456384 C52.9688258,83.8521476 48.1347027,81.4059188 38.6600189,80.4546421 L32.6870568,80.5966052 C7.9589072,81.1870849 13.6222311,66.3860369 9.22462689,49.3538745 L7.97094697,43.1648413 C7.21213258,39.4223469 0.80913447,38.4778893 0.0805738636,32.4605756 C-0.073782197,31.1949963 0.418922348,29.9424354 0.808825758,28.6037048 C1.47008712,26.3394244 3.8227822,24.8199852 6.82593371,24.6981697 C10.8892027,24.5326494 13.7475682,27.5241033 14.3511004,30.8010332 C15.1488125,35.1429963 13.6666856,37.3459041 11.0982008,40.7806052 C9.77536932,42.5511144 10.3498826,45.2577122 11.2488523,48.6186421 L12.7624678,54.2711292 C13.266286,56.1485756 13.7383068,58.1772841 16.1814545,58.5585387 C17.9543883,58.8350258 20.5034242,58.7990701 20.5608447,56.3605904 L20.7716951,47.4720886 C20.8680133,43.4388487 21.2208712,39.2692251 18.0689205,36.3661107 C16.9828712,35.3664797 16.1589186,32.4673948 16.0820492,30.5598819 C15.8718163,25.3484723 20.3314716,21.9463173 25.1998617,22.5175793 C29.7061326,23.0463764 33.1813049,27.156797 33.3887595,32.2690185 C33.5249015,35.6380074 31.6074905,38.4186863 29.4184129,39.8107306 C27.5584223,40.9941697 25.8243864,41.7473801 24.266625,43.3567085 C22.8450057,44.8243838 22.4915303,47.2513948 22.722447,49.7909225 L23.3494413,56.6259188 C24.1212216,65.0600148 21.7398163,74.3511587 32.2125663,75.8157343 L40.8565057,77.0242804 C31.923303,67.9467011 29.0720379,53.5157491 36.7274811,40.605786 C42.6136951,30.6820074 53.4961061,23.2878376 65.4812367,24.2360148 C71.2658845,24.6938303 77.9099867,27.7683542 82.156322,31.6949668 C84.1888826,33.5755129 86.9120322,35.6820221 88.4429356,38.0643985 C91.5871686,42.9509668 93.4240057,51.0521624 92.5873958,57.892428 C91.4016326,67.5790849 89.7426136,70.5386125 83.9693883,78.4039262 L98.1226042,74.8015351 C103.189496,73.2783764 106.737525,71.0937565 107.652547,64.8786863 C107.971138,62.7328118 107.943045,61.0819483 107.878525,59.4797491 L107.852902,58.8765609 C107.692989,54.8870258 107.142246,51.4377565 107.000239,47.6422583 C106.88015,44.4434391 106.710049,40.2143026 104.978483,38.0966347 C103.714616,36.5533284 100.426831,34.3398819 98.6369186,32.835321 C95.8205379,30.4706125 94.200108,28.5001771 94.0513087,24.8249446 C93.863303,20.1745683 97.512589,17.505786 101.01925,15.7879705 C101.400509,15.6010627 105.165562,14.5112325 106.059593,14.4740369 C109.216174,14.3463321 112.394366,16.9776089 113.742511,18.9040295 C115.528411,21.4497565 116.239066,24.8732989 115.640782,28.3727823 C115.361706,30.0065978 110.614023,36.2576236 110.163303,36.6450775 C108.450877,38.1220517 109.71567,44.637786 110.618653,49.710952 C111.178966,52.8604871 111.518858,55.8330332 112.465061,58.8892694 C121.295462,59.5708782 123.392852,60.4415646 126.413292,56.3398229 C129.370445,52.3192915 133.262379,42.2231734 133.058937,37.2482657 C132.987008,35.439321 130.620112,33.4078229 129.401625,32.0009004 C124.455439,26.2805314 122.66707,22.6837196 123.255784,14.6082509 C123.473735,11.6378745 125.7474,7.81757934 127.440686,6.13014022 C131.57465,2.01476015 139.591286,0.354597786 146.189081,0.0867896679 C150.898176,-0.105697417 157.040621,2.67281181 159.194814,6.08860517 C162.095782,10.6856679 163.482826,13.9805756 162.416534,19.9448856 C161.74632,23.7028782 158.356661,30.1445314 156.033294,32.407262 C150.687943,37.6121624 143.619362,36.3487528 138.862417,40.6857565 C137.97703,41.4919705 135.503629,45.788679 134.970483,46.981107 L131.146466,54.8513801 L126.05642,69.3232472 C123.683042,76.0761033 120.01585,80.6040443 109.842551,81.756797 L109.842551,81.756797 Z M39.6417235,68.4141255 C44.6904015,80.1347601 68.7906307,84.4516162 81.7537614,76.0683542 C60.762572,82.967203 41.1201458,73.1156458 46.7553769,55.2515424 L48.580483,50.9752915 C52.6036193,41.555203 61.2497197,38.9443838 68.2679811,38.7565461 C79.4520038,38.4546421 85.2394299,46.7393358 83.7279754,58.9921771 C82.7947386,66.5596162 76.5942557,72.9588044 68.2559413,70.551631 C64.5075587,69.4714096 57.2639375,63.2321624 59.4258485,56.2282362 C60.5239375,52.6608708 65.1030644,50.8488266 68.5303864,51.3215203 C77.8161383,52.6056974 75.1346648,68.0833948 67.5218239,61.2508782 C66.4607803,60.2983616 64.9894583,57.926524 65.6266402,56.5425387 C66.6179148,54.3944945 70.4027254,53.8430701 70.8796856,58.7659041 C72.8853883,54.5646642 68.7724167,53.3127232 67.7814508,53.1747897 C60.1982462,52.1184354 61.8473864,67.0295203 71.3047822,68.3369446 C77.1023958,67.9367823 79.4344072,65.8714982 80.3052841,59.5600295 C80.7714394,56.1650037 78.2381477,51.8484576 74.7663712,50.1501697 C68.5856458,47.1286494 61.3204148,47.5170332 56.5060492,53.2668487 C51.7413864,58.959631 52.9391894,68.7234686 60.6406307,72.4024207 L64.0849318,74.0486347 C70.2965284,76.2344945 76.3099318,76.4908339 80.8967765,72.2620074 C83.8181193,69.5693579 86.3986439,64.8755867 87.1327614,59.5268635 L87.5152557,55.6368266 C88.3290208,47.3555424 85.8815511,37.1481476 71.7999564,33.7500221 L67.6490133,33.3495498 C54.6528504,32.0951292 42.1568011,38.8433358 38.5948807,52.2433506 C37.4933958,56.3872472 37.1510341,60.5497417 38.3883523,64.4543469 L39.6417235,68.4141255 L39.6417235,68.4141255 Z M154.149841,18.5646199 C153.91522,12.7370037 147.439057,7.91335793 142.086606,9.16064945 C136.520218,10.4587749 132.978055,14.5205314 133.230581,20.7449004 C133.419205,25.4829963 137.960051,29.7722657 142.774417,29.576369 L145.642661,29.458893 C150.130718,29.274155 154.358839,23.6886199 154.149841,18.5646199 L154.149841,18.5646199 Z M109.448326,26.6227306 C109.371148,24.7102583 107.245356,23.125107 105.488784,23.5358081 C103.661208,23.9613875 102.498907,25.2951587 102.580407,27.3378155 C102.644928,28.8938303 104.135081,30.3016827 105.714761,30.2375203 L106.656025,30.1987749 C108.12889,30.1380221 109.516551,28.3042804 109.448326,26.6227306 L109.448326,26.6227306 Z M27.7976742,31.5117786 C27.7112348,29.3277786 25.2807443,27.5188339 23.2738068,27.9878081 C21.1881477,28.4729004 19.8594508,29.996059 19.9545341,32.3294613 C20.0258466,34.1070996 21.7277765,35.7145683 23.5325076,35.6395572 L24.6071345,35.5967823 C26.290233,35.5289004 27.875161,33.4332399 27.7976742,31.5117786 L27.7976742,31.5117786 Z M9.54877462,34.0023321 C9.50370265,32.8985535 8.27564583,31.9847823 7.26152652,32.2206642 C6.20696591,32.4677048 5.53644318,33.2370332 5.58336742,34.4164428 C5.62010417,35.313476 6.47863258,36.1271292 7.39149432,36.0902435 L7.9360625,36.0669963 C8.78656439,36.0329004 9.58798106,34.9746863 9.54877462,34.0023321 L9.54877462,34.0023321 Z" id="Shape"></path>
                            </g>
                        </g>
                        <g id="tartaruga-copy" transform="translate(31.000000, 55.000000)">
                            <g id="Layer_1" fill="#B02488">
                                <path d="M149.531637,70.6571689 C158.340335,70.4397808 158.714393,68.1903562 164.379629,61.5007489 C169.233936,55.7690959 168.883633,47.0257534 168.581246,37.0090228 C168.048947,19.5074703 166.899794,0.680292237 188.677735,0.140639269 C199.606769,-0.129388128 205.596136,2.63115982 212.831291,5.93296804 L201.618794,26.7628493 L209.170832,25.626484 C204.957539,43.5346849 195.568225,53.6550868 191.656917,59.5185388 C185.728752,68.4081461 172.296062,77.7152511 156.606136,78.1030137 L149.149928,77.7915982 L136.967053,77.3580274 L136.870418,87.6958174 L127.616393,86.8588128 L129.439174,77.6196164 L126.147539,77.6107763 L125.516994,87.5109772 L116.709102,87.3518539 L117.879193,77.3479817 L83.7178582,77.6196164 L84.6862231,87.0006575 L76.1130737,86.9512329 L76.9014556,77.379726 L74.1288318,77.4408037 L73.4636597,86.2078539 L64.8401796,86.5164566 L67.4658374,77.1816256 C52.8936578,76.3779726 49.4727732,76.7456438 34.2648147,76.7279635 L9.4923913,74.9498813 L12.6954442,68.4105571 L0.376877127,64.1355251 C-0.126431002,51.6399269 8.84735161,38.5218995 22.8916616,38.1751233 C35.1023195,37.8733516 42.6181191,46.3707763 46.1497316,55.4858082 C49.9454802,65.2787215 44.4747221,70.3099909 58.4409187,69.9644201 C61.1197259,65.1493333 62.1505009,44.6300639 66.8103289,39.5666484 C72.87338,32.9774977 83.0196692,27.0983744 95.8910699,26.275032 C103.830051,25.7679269 112.619019,24.7577352 120.449285,28.1250411 C133.327531,33.6610046 146.103505,45.1026119 149.531637,70.6571689 M184.653284,18.125589 C185.504478,20.2428128 187.414231,21.4318174 190.03103,21.0267763 C192.020909,20.7181735 193.583983,18.7291324 193.235291,16.8517991 L193.028733,15.7347215 C192.706214,13.9859726 190.114781,12.602484 187.961025,12.9351963 C185.512934,13.3129132 183.831079,16.0899361 184.653284,18.125589 M22.0767051,59.4843836 C22.9943365,61.7619361 25.0498469,63.0413516 27.8615274,62.6057717 C30.0032042,62.273863 31.6842533,60.1345388 31.3114026,58.1141553 L31.0887391,56.9134977 C30.7412552,55.0313425 27.9541361,53.5441826 25.6365028,53.9010046 C23.0035974,54.3080548 21.1937013,57.2952329 22.0767051,59.4843836" id="Shape"></path>
                            </g>
                        </g>
                        <g id="elefante-copy" transform="translate(18.000000, 143.000000)">
                            <g id="Layer_1" fill="#0570B0">
                                <path d="M53.1787441,100.865176 L53.9060559,117.376486 L42.0355613,117.768307 L31.7609419,86.6392332 L30.9413763,96.7901597 L30.3434495,104.421853 C30.256172,111.181725 23.6839527,119.413419 17.3276301,119.331757 C10.4744387,119.243578 6.77050753,114.067476 4.22300215,108.36 C1.52429247,102.308243 1.02015054,98.0166134 0.352172043,90.6195527 L6.44283441,89.5836422 C7.00324731,95.1826198 9.38500215,105.100831 13.083957,109.53623 C17.7751183,115.163578 26.8519699,111.559361 26.4699398,102.178658 C26.2881118,97.7068371 25.9715398,93.9028754 25.4011742,90.3208946 C23.9266452,94.7221725 21.0820903,97.7168051 16.8678925,99.3005751 C24.6149118,85.0604473 21.284972,76.7743131 17.9657505,58.5350799 C14.7544774,40.886262 14.2652645,28.4035783 25.2802108,17.661853 C29.8167226,13.2371885 35.9295871,8.25699681 42.7142581,4.95603834 C58.8050753,-2.8742492 70.8719441,4.67118211 87.2732086,4.84715655 C107.911256,5.06798722 118.503213,-10.1440256 148.453531,12.9933546 C153.264125,16.7099042 156.048963,23.2715655 157.543015,30.0977636 C159.393832,38.548754 157.425497,50.764984 155.126809,61.658147 C152.241295,75.3293291 153.259914,81.4313099 156.225432,95.2884345 C153.320778,93.0601917 151.210426,89.7998722 149.893609,85.5059425 C148.895277,90.136869 148.118968,94.9610224 148.072649,98.5602556 C148.014082,103.125623 148.453531,109.792332 154.659415,109.871693 C164.350271,109.997444 168.464942,88.6964856 169.124882,81.8292652 L177.834249,83.7017252 C176.502503,90.0134185 174.686138,96.5244728 172.699428,101.42147 C168.930039,108.957316 165.401428,115.784665 153.944353,115.636677 C145.718456,115.530479 142.989505,107.577508 143.255166,99.1395527 L143.531161,90.4842173 C143.770409,82.9303514 143.973673,77.88 143.440056,71.9858147 L129.200439,119.305304 L117.950839,119.984281 L119.500778,101.25853 L113.854542,101.664153 L111.588009,119.167284 L105.194172,119.176486 L103.474654,103.576102 L91.9031226,103.564217 L66.8682839,104.47016 L65.7761677,114.181725 L61.1229032,114.123067 L59.5649247,100.629393 M131.382757,51.5302236 C128.97191,51.8361661 127.201862,54.713099 127.911566,56.9026198 C128.64883,59.1784026 130.462133,60.513738 133.036817,60.1855591 C134.9952,59.9363578 136.614043,57.8894569 136.360632,55.8854952 L136.209811,54.6935463 C135.973243,52.8279872 133.50268,51.261853 131.382757,51.5302236 M38.4150796,60.2760383 C36.0038495,60.5812141 34.2330366,63.458147 34.9431226,65.646901 C35.6811527,67.9234505 37.4933075,69.2584026 40.068757,68.9309904 C42.0279054,68.6814058 43.6459828,66.6348882 43.3921892,64.6305431 L43.2417505,63.4385942 C43.0051828,61.5730351 40.5346194,60.006901 38.4150796,60.2760383" id="Shape"></path>
                            </g>
                        </g>
                        <g id="pato" transform="translate(76.000000, 252.000000)">
                            <g id="Layer_1" fill="#FF4100">
                                <path d="M33.6318529,91.5254804 C34.9486176,95.2437989 39.5524412,100.589397 41.9769706,103.526542 C50.6572647,114.03843 60.4682941,117.488777 73.5414706,117.841788 C87.3658824,118.212927 99.2510588,112.910838 105.592559,105.372682 C117.176853,91.611838 117.798029,62.776 117.954941,47.7962626 C117.348971,36.684486 135.461441,46.4992514 136.266382,24.7994469 C136.353088,22.4608715 135.362118,20.4914581 133.014588,16.4857207 C135.491529,17.0925307 138.029941,17.0111173 140.58,16.6788715 C144.229412,16.2042346 143.269824,13.6810782 140.158765,13.4856201 C137.109176,13.4032179 135.212971,13.9368547 132.286971,14.7631844 C133.358824,12.1609218 133.689794,9.70039106 133.736059,7.37664804 C133.867088,0.961469274 129.429559,0.639441341 129.4645,7.16635754 C129.472265,8.73002235 129.5415,10.9960838 130.195353,14.2384469 C126.213353,12.7720168 123.957706,11.0883743 118.781235,10.9496089 C102.985235,10.5234246 93.3288529,24.0347542 102.439441,38.1011453 C104.947765,41.9727318 108.122235,45.022933 107.963382,51.1566257 L107.956588,51.4997486 C107.606206,64.8835196 90.5380882,72.9968436 76.4011471,72.6158156 C64.6880882,72.297743 50.8957059,70.3655754 44.4215588,58.6993966 C41.4095,53.2704078 41.2157059,51.3784525 40.4971471,44.080581 C39.8565588,37.5793743 45.8670882,29.507581 47.2045588,21.1127709 C48.7691471,11.2930615 44.7615882,1.49939106 28.6491765,0.322357542 C18.9112647,0.183921788 9.47132353,5.22067598 8.09502941,15.6900447 C7.87923529,17.3311676 7.85335294,18.5619274 6.34732353,16.9554134 C5.47541176,16.025257 4.78726471,14.6468324 3.81764706,13.5587933 C0.939205882,10.3263184 -1.19511765,13.2967542 0.946,16.0835978 C2.34947059,17.9099609 4.63326471,19.5609721 7.68511765,20.5741899 C5.54270588,21.3270168 3.63,22.1777374 2.54585294,24.9675475 C1.38664706,27.9475419 3.70926471,28.3226369 5.28420588,27.1442849 C6.60614706,26.1541397 7.21147059,25.680162 8.25064706,23.7565642 C9.65864706,27.7365922 10.0798824,32.4256089 18.9701471,34.3432737 C25.0612353,35.6544581 30.5816176,37.5414693 31.7482647,46.5467151 C33.8615588,62.8933408 27.5265294,74.2866034 33.6318529,91.5254804 M27.7041471,12.4608659 C29.9746765,12.9681341 31.4163235,15.9098939 30.5518529,17.9692905 C29.656,20.1107598 27.8151176,21.2469218 25.3883235,20.7043855 C23.5425882,20.2927039 22.1769706,18.1677151 22.5881765,16.2487318 L22.8363235,15.105648 C23.2193824,13.3194972 25.7079706,12.0168827 27.7041471,12.4608659 M125.039588,18.7979274 C126.815765,19.1954358 127.943588,21.497095 127.269676,23.1102011 C126.567618,24.7862626 125.126618,25.6752179 123.229118,25.2510112 C121.785529,24.928324 120.714647,23.2647877 121.037853,21.7624302 L121.228735,20.8695196 C121.530265,19.4680223 123.476294,18.4501899 125.039588,18.7979274" id="Shape"></path>
                            </g>
                        </g>
                        <g id="cobra-copy" transform="translate(0.000000, 345.000000)">
                            <g id="Layer_1" fill="#E00028">
                                <path d="M16.7136892,34.1621429 C15.2633705,33.3487143 14.0264861,32.2687857 13.0321833,30.9362857 L4.88501195,39.2535 L4.95788048,34.2619643 L0.21625498,34.1718929 L11.0454582,27.05625 C10.5010598,25.4015357 10.1917211,23.5309286 10.1409482,21.45975 C9.85135458,9.41710714 26.4503347,2.79453571 36.6058566,1.55907143 C49.3404542,0.00742857143 60.9787331,7.306 61.2706773,19.4828214 C61.4704781,27.7638214 57.7156335,35.2861786 57.9168446,43.6577143 C58.0842072,50.6568214 67.0902869,60.7842857 74.6197211,54.0665357 C80.1356335,49.1451071 80.8243586,39.4675357 84.2867888,32.0385 C85.671761,29.0638214 91.1801514,26.4271429 94.8452032,27.2851429 C99.8698406,28.4607143 101.019283,30.7988571 102.184239,36.0443571 C103.79957,43.3197143 102.323865,58.1624643 113.766574,57.8941071 C122.150215,57.69725 123.307179,46.7489286 124.826135,39.455 C126.913466,29.4445357 122.667817,23.3582143 135.638884,21.1523929 C158.741498,17.2226786 145.570629,54.0391429 161.691968,53.6602857 C176.493681,53.3153214 172.377315,31.1322143 175.889108,19.9498929 C180.165785,6.33703571 186.248191,0.616107143 204.499171,0.188035714 C218.443857,-0.138821429 231.478861,8.93982143 231.83098,23.6446786 C231.970606,29.4078571 228.788837,33.9833929 224.27992,37.0267857 L235.774343,47.45 L231.075028,46.81625 L230.363267,51.7557857 L221.137171,38.805 C217.004351,40.7526786 212.258494,41.5990714 208.03212,41.1496429 C195.832048,39.8524286 181.606231,8.52382143 179.024805,36.6938929 C178.557506,41.7885 177.742319,46.6305357 176.570781,51.7214286 C175.098367,58.1225357 168.957665,63.206 161.137697,63.3889286 C153.295163,63.5741786 148.05051,61.3182143 147.514574,54.0057143 C147.028,47.3283571 148.121968,37.9056786 139.257865,37.4752857 C130.936749,37.0690357 136.936414,55.3303214 128.984343,61.5930714 C122.595418,66.6263929 108.073896,65.7846429 102.317753,60.9867143 C98.946996,58.1763929 98.683259,53.2962857 98.577012,47.34275 C98.4641833,40.9383929 92.1232112,40.4996429 89.2347968,43.9121429 C85.2951952,48.5656786 85.0765896,62.0647857 73.3259522,62.3401071 C56.0988924,62.7431071 52.321012,48.7314286 54.0816096,35.3702143 C56.8534343,14.3501429 33.5505498,43.6145357 16.7136892,34.1621429 M197.514135,6.56035714 C193.805833,7.35103571 191.439251,12.0036429 192.839737,15.2666429 C194.295697,18.6619643 197.29506,20.4671071 201.258637,19.6221071 C204.273514,18.9753571 206.516924,15.6185714 205.850295,12.5788929 L205.453984,10.7695714 C204.833426,7.93557143 200.778645,5.86439286 197.514135,6.56035714 M39.7255697,9.70960714 C37.5818247,10.1669286 36.2170677,12.8528214 37.0252032,14.7378214 C37.8657769,16.6989643 39.5986375,17.7422143 41.8890598,17.2523929 C43.6294422,16.8795714 44.9246215,14.94025 44.5395936,13.18525 L44.3106454,12.1392143 C43.9528845,10.5044643 41.6098088,9.30753571 39.7255697,9.70960714" id="Shape"></path>
                            </g>
                        </g>
                    </g>
                </g>
            </g>
            <path d="M152.292368,30.5 L272.693476,30.5" id="Line-Copy-51" stroke="#66B821" stroke-width="3" stroke-linecap="square"></path>
            <path d="M152.292368,471.5 L272.693476,471.5" id="Line-Copy-52" stroke="#66B821" stroke-width="3" stroke-linecap="square"></path>
            <path d="M593.292368,30.5 L713.693476,30.5" id="Line-Copy-53" stroke="#FF4100" stroke-width="3" stroke-linecap="square"></path>
            <path d="M593.292368,471.5 L713.693476,471.5" id="Line-Copy-54" stroke="#FF4100" stroke-width="3" stroke-linecap="square"></path>
            <path d="M273.291557,30.5 L357.407699,30.5" id="Line-Copy-55" stroke="#0470B0" stroke-width="3" stroke-linecap="square"></path>
            <path d="M273.291557,471.5 L357.407699,471.5" id="Line-Copy-56" stroke="#0470B0" stroke-width="3" stroke-linecap="square"></path>
            <path d="M358.292679,30.5 L431.990008,30.5" id="Line-Copy-57" stroke="#B02488" stroke-width="3" stroke-linecap="square"></path>
            <path d="M358.292679,471.5 L431.990008,471.5" id="Line-Copy-58" stroke="#B02488" stroke-width="3" stroke-linecap="square"></path>
            <path d="M428.292889,30.5 L510.405046,30.5" id="Line-Copy-59" stroke="#E02128" stroke-width="3" stroke-linecap="square"></path>
            <path d="M428.292889,471.5 L510.405046,471.5" id="Line-Copy-60" stroke="#E02128" stroke-width="3" stroke-linecap="square"></path>
            <path d="M510.292889,30.5 L592.405046,30.5" id="Line-Copy-61" stroke="#F22D92" stroke-width="3" stroke-linecap="square"></path>
            <path d="M510.292889,471.5 L592.405046,471.5" id="Line-Copy-62" stroke="#F22D92" stroke-width="3" stroke-linecap="square"></path>
        </g>
    </g>
</svg>